<svg
  xmlns="http://www.w3.org/2000/svg"
  width="1200"
  height="630"
  viewBox="0 0 1200 630"
  fill="none"
>
  <rect width="1200" height="630" fill="#f7f2ea" />
  <rect x="34" y="34" width="1132" height="562" rx="28" fill="#fcf8f2" />
  <rect x="34" y="34" width="1132" height="562" rx="28" stroke="#ddd2c4" stroke-width="2" />

  <g opacity="0.45" stroke="#ddd2c4">
    <line x1="78" y1="520.5" x2="372" y2="520.5" />
    <line x1="78" y1="544.5" x2="304" y2="544.5" />
  </g>

  <text
    x="78"
    y="244"
    fill="#2d261f"
    font-family="Georgia, 'Times New Roman', serif"
    font-size="136"
    font-weight="700"
    letter-spacing="-2"
  >
    Own Your Output
  </text>

  <text
    x="78"
    y="392"
    fill="#c55333"
    font-family="Georgia, 'Times New Roman', serif"
    font-size="110"
    font-style="italic"
    font-weight="700"
    letter-spacing="-2"
  >
    Don't Send Slop
  </text>

  <text
    x="78"
    y="554"
    fill="#5c5144"
    font-family="'Helvetica Neue', Arial, sans-serif"
    font-size="24"
    font-weight="600"
    letter-spacing="3.5"
  >
    NO-SLOP.AI
  </text>

  <g transform="translate(878 132)">
    <circle cx="118" cy="118" r="118" fill="#f0e5d8" />
    <circle cx="118" cy="118" r="118" stroke="#ddd2c4" stroke-width="2" />

    <g transform="translate(6 -2) scale(0.9)">
      <g stroke="#2d261f" stroke-linecap="round" stroke-linejoin="round">
        <line x1="112" y1="26" x2="112" y2="46" stroke-width="12" />
        <circle cx="112" cy="16" r="9" fill="#2d261f" stroke-width="0" />
        <rect x="56" y="52" width="112" height="92" rx="24" stroke-width="12" />
        <line x1="38" y1="98" x2="56" y2="98" stroke-width="12" />
        <line x1="168" y1="98" x2="186" y2="98" stroke-width="12" />
        <circle cx="88" cy="92" r="9" fill="#2d261f" stroke-width="0" />
        <circle cx="136" cy="92" r="9" fill="#2d261f" stroke-width="0" />
        <line x1="84" y1="120" x2="140" y2="120" stroke-width="12" />
      </g>
      <circle cx="112" cy="112" r="88" stroke="#c55333" stroke-width="16" />
      <line
        x1="59"
        y1="165"
        x2="165"
        y2="59"
        stroke="#c55333"
        stroke-linecap="round"
        stroke-width="16"
      />
    </g>
  </g>
</svg>
