<?xml version="1.0" encoding="UTF-8"?>
<!-- Generated by Pixelmator Pro 4.2 -->
<svg width="1200" height="630" viewBox="0 0 1200 630" xmlns="http://www.w3.org/2000/svg">
    <path id="Path" fill="#f6efe2" stroke="none" d="M 0 0 L 1200 0 L 1200 630 L 0 630 Z"/>
    <g id="Group">
        <g id="g1">
            <g id="g2">
                <path id="path1" fill="none" stroke="#1f1a14" stroke-width="5.475086" stroke-linecap="round" stroke-linejoin="round" d="M 174.800003 109.353943 L 174.800003 127.16925"/>
                <path id="path2" fill="#1f1a14" stroke="none" d="M 180.738449 104.900024 C 180.738449 108.17981 178.079727 110.838501 174.800003 110.838501 C 171.520294 110.838501 168.861542 108.17981 168.861542 104.900024 C 168.861542 101.620239 171.520294 98.961548 174.800003 98.961548 C 178.079727 98.961548 180.738449 101.620239 180.738449 104.900024 Z"/>
                <path id="path3" fill="#f6efe2" stroke="#1f1a14" stroke-width="8.165384" stroke-linecap="round" stroke-linejoin="round" d="M 148.076935 133.107727 L 201.523087 133.107727 C 209.722382 133.107727 216.369247 139.754608 216.369247 147.953888 L 216.369247 183.584625 C 216.369247 191.783936 209.722382 198.430786 201.523087 198.430786 L 148.076935 198.430786 C 139.877625 198.430786 133.230774 191.783936 133.230774 183.584625 L 133.230774 147.953888 C 133.230774 139.754608 139.877625 133.107727 148.076935 133.107727 Z"/>
                <path id="path4" fill="none" stroke="#1f1a14" stroke-width="5.475086" stroke-linecap="round" stroke-linejoin="round" d="M 121.353851 162.800049 L 133.230774 162.800049"/>
                <path id="path5" fill="none" stroke="#1f1a14" stroke-width="5.475086" stroke-linecap="round" stroke-linejoin="round" d="M 216.369247 162.800049 L 228.246155 162.800049"/>
                <path id="path6" fill="#1f1a14" stroke="none" d="M 163.516922 159.830811 C 163.516922 163.438477 160.5923 166.363098 156.984634 166.363098 C 153.376923 166.363098 150.452316 163.438477 150.452316 159.830811 C 150.452316 156.223083 153.376923 153.298462 156.984634 153.298462 C 160.5923 153.298462 163.516922 156.223083 163.516922 159.830811 Z"/>
                <path id="path7" fill="#1f1a14" stroke="none" d="M 199.147705 159.830811 C 199.147705 163.438477 196.223099 166.363098 192.615387 166.363098 C 189.00769 166.363098 186.083084 163.438477 186.083084 159.830811 C 186.083084 156.223083 189.00769 153.298462 192.615387 153.298462 C 196.223099 153.298462 199.147705 156.223083 199.147705 159.830811 Z"/>
                <path id="path8" fill="none" stroke="#1f1a14" stroke-width="5.475086" stroke-linecap="round" stroke-linejoin="round" d="M 154.015381 180.615387 L 195.58461 180.615387"/>
            </g>
            <path id="path9" fill="none" stroke="#d65530" stroke-width="13.361539" d="M 252.000015 162.800049 C 252.000015 205.436401 217.436386 240 174.800003 240 C 132.16362 240 97.599998 205.436401 97.599998 162.800049 C 97.599998 120.163666 132.16362 85.599976 174.800003 85.599976 C 217.436386 85.599976 252.000015 120.163666 252.000015 162.800049 Z"/>
            <path id="path10" fill="none" stroke="#d65530" stroke-width="13.361539" stroke-linecap="round" d="M 120.166161 217.433899 L 229.433853 108.166199"/>
        </g>
    </g>
    <text id="Own-Your-Output" xml:space="preserve" x="87" y="367" font-family="Times New Roman" font-size="118" fill="#1f1a14" letter-spacing="-3">Own Your Output.</text>
    <text id="Dont-Send-Slop" xml:space="preserve" x="87" y="497" font-family="Times New Roman" font-size="118" font-style="italic" fill="#d65530" letter-spacing="-3">Don’t Send Slop.</text>
    <path id="path11" fill="none" stroke="#dccfb8" d="M 88 540 L 1112 540"/>
    <g id="g3">
        <path id="path12" fill="#d65530" stroke="none" d="M 99 583 C 99 585.761414 96.761421 588 94 588 C 91.238579 588 89 585.761414 89 583 C 89 580.238586 91.238579 578 94 578 C 96.761421 578 99 580.238586 99 583 Z"/>
        <text id="A-POLITE-PUBLIC-SERVICE" xml:space="preserve" x="109" y="592" font-family="Helvetica" font-size="20" fill="#6b6357" letter-spacing="4.4">A POLITE PUBLIC SERVICE ANNOUNCEMENT</text>
    </g>
    <text id="no-slopai" xml:space="preserve" x="921.578125" y="592" font-family="Helvetica" font-size="34" fill="#1f1a14" letter-spacing="4">no-slop.ai</text>
</svg>
